PathFileType	3	(X/Y/Z)	D:\Jess\PFP\Labelled\PA23\20251014\SRRun01.trc
DataRate	CameraRate	NumFrames	NumMarkers	Units	OrigDataRate	OrigDataStartFrame	OrigNumFrames
250.0	250.0	4	37	mm	250.0	35937	2501
Frame#	Time	C7			T10			CLAV			LSHO			RSHO			LASIS			RASIS			LPSIS			RPSIS			LILCR			RILCR			LGTR			LTHI			LLTHI			LLEP			LMEP			LPSH			LLSH			LDSH			LLMAL			LMMAL			LTOE			L5TH			LHEE			RGTR			RTHI			RLTHI			RLEP			RMEP			RPSH			RLSH			RDSH			RLMAL			RMMAL			RTOE			R5TH			RHEE			
		X1	Y1	Z1	X2	Y2	Z2	X3	Y3	Z3	X4	Y4	Z4	X5	Y5	Z5	X6	Y6	Z6	X7	Y7	Z7	X8	Y8	Z8	X9	Y9	Z9	X10	Y10	Z10	X11	Y11	Z11	X12	Y12	Z12	X13	Y13	Z13	X14	Y14	Z14	X15	Y15	Z15	X16	Y16	Z16	X17	Y17	Z17	X18	Y18	Z18	X19	Y19	Z19	X20	Y20	Z20	X21	Y21	Z21	X22	Y22	Z22	X23	Y23	Z23	X24	Y24	Z24	X25	Y25	Z25	X26	Y26	Z26	X27	Y27	Z27	X28	Y28	Z28	X29	Y29	Z29	X30	Y30	Z30	X31	Y31	Z31	X32	Y32	Z32	X33	Y33	Z33	X34	Y34	Z34	X35	Y35	Z35	X36	Y36	Z36	X37	Y37	Z37	

938	143.744	826.6925164558176	1651.556011345184	-819.1637012620663	825.4580690948357	1401.419611556729	-731.7344351007487	835.971519106509	1516.742085863719	-971.5570549569271	646.9319490130458	1605.404741987319	-898.9025583237366	995.4276883814567	1614.404979164599	-861.4935433851186	690.0948557078683	1114.781007550903	-896.8751114224357	954.6621574466014	1094.854728961039	-913.6699128641631	807.8213704135247	1150.62431154434	-724.1481819245246	860.7582499226781	1143.070609626639	-724.9686840340072	672.4831872248021	1202.937713460632	-825.7935511735877	993.9892256367879	1182.607985936254	-844.4450290577821	643.0607426819968	971.6753534493416	-813.9831735598722	727.4559529783879	800.5281410881424	-929.1330297945862	706.4281048258248	667.849299792555	-844.3794730024279	735.859914096472	531.2214544954412	-831.3790913697685	nan	nan	nan	800.5371107099299	410.2650700214236	-839.4730053228675	739.3123452752625	336.8601687868581	-728.2984146595446	819.4154639701478	218.2265781632939	-698.801422106518	780.5842308315418	122.4641213256923	-586.3370898495978	nan	nan	nan	789.8306176709488	68.48141656918206	-741.3202232890101	743.581297058516	46.76054860521675	-692.4862930285007	833.1039672903993	97.88973008367516	-497.5888844186837	1013.728468257424	946.755803035627	-829.1827528472774	958.190262700818	830.3922133418957	-1010.873740103942	1009.182335767954	697.9623124504541	-948.4049857384271	1000.395480500585	572.42198465632	-999.3054042509121	nan	nan	nan	954.9656113717015	470.8434442929877	-943.6751478124322	1006.876775370627	516.1675157486618	-785.8061761510796	948.4705485877059	423.1581696717261	-701.8923764637635	978.0570113371259	435.2046432022682	-556.3341891998834	nan	nan	nan	981.4040502107574	257.5572648007663	-559.4087107508318	1022.799377513311	295.1552816012215	-515.4279444535456	918.3879147237586	491.237739721028	-484.5700470477574	
939	143.748	826.3820668358134	1654.710583860464	-819.1235182733718	824.2604639881748	1404.322513205864	-732.4545001727876	836.8457665759265	1520.41308469197	-971.660626855713	647.3064154938052	1609.149038668898	-900.0581411637208	995.3033846276215	1617.901420459326	-860.2448475489934	690.1225363132077	1116.565324972878	-897.70624066126	954.7130792437614	1098.626366717838	-913.6722129874942	806.8513776287338	1153.719250500734	-724.7577107453052	859.9880548549689	1146.625906735948	-725.2662773470115	672.2123783391586	1205.454590818138	-828.1216255629591	993.6464014013746	1186.129917383276	-844.194650452099	643.4442934021373	973.41313352054	-812.8182918804513	728.0821911561684	800.6516083993988	-924.3738907417672	707.0101590909607	669.6074610860995	-836.505843028361	736.0319036138669	533.3787220917578	-821.1040469162285	nan	nan	nan	800.9469501217358	411.8341625601594	-828.325406502793	739.2442596749645	338.9909971650738	-717.1728842133882	819.3163585716776	220.0278479831877	-687.3755893393636	780.2988079744069	124.2821020552409	-574.8021224012289	nan	nan	nan	789.8067723054313	68.34455820126071	-729.2631833819435	743.6337697189064	46.96060802623705	-680.3610631205082	832.7733850620662	100.2348878085361	-486.0331860834585	1014.270412076399	951.2164481407571	-829.7999293347382	958.7256215790865	836.6110664557232	-1012.192489900637	1008.618445893234	703.0671035003876	-951.527435067524	999.5203910896765	578.3069006974539	-1004.030812071919	nan	nan	nan	953.8272603210937	475.0823965682981	-950.8225689248716	1005.953286230213	515.8319758640507	-791.7276915757425	947.0308585937082	421.0079455928382	-710.1939086387838	976.7716673995085	428.5636288516204	-564.3953561493088	nan	nan	nan	978.347235959739	251.2980051939627	-573.1157973091729	1020.125315369086	286.8451661475836	-527.8615701666339	917.9510627061891	483.0090522545577	-490.791974982681	
940	143.752	826.0975974856242	1658.002170512791	-819.074861258549	823.0273580787084	1407.347068614412	-733.2394780539024	837.7108696800393	1524.278274265325	-971.7794807610014	647.6943504506222	1613.099879842266	-901.1881147539602	995.1644079690336	1621.530399340902	-859.0316338754596	690.1624867098328	1118.451518735087	-898.6474440247486	954.7393692528988	1102.587140618667	-913.7795885814868	805.8745884863035	1156.957579942625	-725.4789499099139	859.2249758703947	1150.3378174648	-725.66519777322	671.9003942353187	1208.013442314291	-830.6362086713034	993.2861490204143	1189.882666861203	-844.0462595135906	643.8544640218685	975.3111491034609	-811.817348313852	728.9137086882154	801.0594644391099	-919.6520306804827	707.6265034583081	671.6589248183398	-828.6907143749266	736.2105984486366	535.8929626180519	-810.8673454420481	nan	nan	nan	801.4042512493472	413.798239684846	-817.156854125141	739.1585735314276	341.4698724339812	-706.0822940075556	819.2143658579572	222.1409800156207	-676.0528013903329	779.9951188375782	126.34562828306	-563.4164827932435	nan	nan	nan	789.8067742490205	68.19437104306724	-717.26976039193	743.7022645040986	47.21322639122585	-668.2928869712624	832.4230486099176	102.9250799436167	-474.6175512018855	1014.831276818866	955.8998492480024	-830.6545579408721	959.2051792698841	842.8839821258819	-1013.498172004798	1008.026166301851	708.3015718995185	-954.53239509456	998.5717584859831	584.2750102039855	-1008.453299208396	nan	nan	nan	952.6597027311093	479.3733955834917	-957.7601463894853	1004.96289015669	515.4553640557381	-797.5303923618989	945.5750337083537	418.7735407040349	-718.5033142108456	975.4681263380528	421.7163971167423	-572.6164300866986	nan	nan	nan	975.3531307159411	245.0716396596149	-587.131800298758	1017.479095716406	278.4970415910893	-540.6496637067211	917.4732789933645	474.4335109405637	-497.1573130831072	
941	143.756	825.8361700736771	1661.412074608626	-819.0187070325904	821.7575206848361	1410.478370560479	-734.0852018463042	838.5600396475877	1528.316379810679	-971.9114032806248	648.0946912883069	1617.23624372547	-902.2948535855656	995.0077792602066	1625.272072327282	-857.8560453497487	690.224872268616	1120.438208964902	-899.6945200914179	954.7473977351447	1106.732144725159	-913.9867711098625	804.8980824198155	1160.333143631082	-726.3066092779151	858.4751194632962	1154.197793450117	-726.1618944765244	671.557948901478	1210.613403738418	-833.3221483529283	992.9088918632831	1193.877145365397	-844.0050467973149	644.2930781679003	977.365076239549	-810.9837589936242	729.9570302293338	801.7560066950352	-914.9827721393533	708.2527206436013	673.995655898712	-820.979654580549	736.3692376697879	538.7462871480038	-800.7007281702737	nan	nan	nan	801.8724464595009	416.1459351293668	-806.005829605007	739.0393310969896	344.2885112478099	-695.0527321620775	819.093561147355	224.5686253649488	-664.8663562195641	779.6700206841782	128.6613228146473	-552.2061435133448	nan	nan	nan	789.8269290366153	68.02106063614457	-705.3519707361789	743.7825554320565	47.51916039829782	-656.2923556381036	832.0557318117829	105.9809040247953	-463.3674390032638	1015.407404632322	960.7936441880261	-831.7282533021246	959.6113778812253	849.1813332942114	-1014.799582828902	1007.417239755787	713.6480254572668	-957.427603308045	997.555946010885	590.2863320486173	-1012.577531227186	nan	nan	nan	951.465243788118	483.6903775230249	-964.4845777825381	1003.911888024126	515.0240937088906	-803.2311985324973	944.1062499062406	416.4537386188742	-726.8299016448735	974.1477113957258	414.6769900187663	-581.0132332270547	nan	nan	nan	972.4298481757062	238.8993603353085	-601.4449033462512	1014.867562218135	270.1407904456744	-553.7870475575002	916.9489614039062	465.5312415075519	-503.6965486070529	
